<mxfile host="Electron" agent="Mozilla/5.0 (Macintosh; Intel Mac OS X 10_15_7) AppleWebKit/537.36 (KHTML, like Gecko) draw.io/24.7.5 Chrome/126.0.6478.183 Electron/31.3.0 Safari/537.36" version="24.7.5">
  <diagram name="Page-1" id="IBxp9Ai6sSP5IXtnGdbq">
    <mxGraphModel dx="2037" dy="837" grid="1" gridSize="10" guides="1" tooltips="1" connect="1" arrows="1" fold="1" page="1" pageScale="1" pageWidth="1169" pageHeight="827" math="0" shadow="0">
      <root>
        <mxCell id="0" />
        <mxCell id="1" parent="0" />
        <mxCell id="g7j074XMkEkk1sg4dYx8-2" value="AWS Cloud" style="points=[[0,0],[0.25,0],[0.5,0],[0.75,0],[1,0],[1,0.25],[1,0.5],[1,0.75],[1,1],[0.75,1],[0.5,1],[0.25,1],[0,1],[0,0.75],[0,0.5],[0,0.25]];outlineConnect=0;gradientColor=none;html=1;whiteSpace=wrap;fontSize=12;fontStyle=0;container=1;pointerEvents=0;collapsible=0;recursiveResize=0;shape=mxgraph.aws4.group;grIcon=mxgraph.aws4.group_aws_cloud_alt;strokeColor=#232F3E;fillColor=none;verticalAlign=top;align=left;spacingLeft=30;fontColor=#232F3E;dashed=0;" vertex="1" parent="1">
          <mxGeometry x="40" y="40" width="1040" height="840" as="geometry" />
        </mxCell>
        <mxCell id="g7j074XMkEkk1sg4dYx8-3" value="US-EAST-1" style="points=[[0,0],[0.25,0],[0.5,0],[0.75,0],[1,0],[1,0.25],[1,0.5],[1,0.75],[1,1],[0.75,1],[0.5,1],[0.25,1],[0,1],[0,0.75],[0,0.5],[0,0.25]];outlineConnect=0;gradientColor=none;html=1;whiteSpace=wrap;fontSize=12;fontStyle=0;container=1;pointerEvents=0;collapsible=0;recursiveResize=0;shape=mxgraph.aws4.group;grIcon=mxgraph.aws4.group_region;strokeColor=#00A4A6;fillColor=none;verticalAlign=top;align=left;spacingLeft=30;fontColor=#147EBA;dashed=1;" vertex="1" parent="g7j074XMkEkk1sg4dYx8-2">
          <mxGeometry x="40" y="40" width="130" height="130" as="geometry" />
        </mxCell>
        <mxCell id="g7j074XMkEkk1sg4dYx8-4" value="&lt;b&gt;Certificate Manager&lt;/b&gt;" style="sketch=0;points=[[0,0,0],[0.25,0,0],[0.5,0,0],[0.75,0,0],[1,0,0],[0,1,0],[0.25,1,0],[0.5,1,0],[0.75,1,0],[1,1,0],[0,0.25,0],[0,0.5,0],[0,0.75,0],[1,0.25,0],[1,0.5,0],[1,0.75,0]];outlineConnect=0;fontColor=#232F3E;fillColor=#DD344C;strokeColor=#ffffff;dashed=0;verticalLabelPosition=bottom;verticalAlign=top;align=center;html=1;fontSize=12;fontStyle=0;aspect=fixed;shape=mxgraph.aws4.resourceIcon;resIcon=mxgraph.aws4.certificate_manager_3;" vertex="1" parent="g7j074XMkEkk1sg4dYx8-3">
          <mxGeometry x="30" y="26" width="78" height="78" as="geometry" />
        </mxCell>
        <mxCell id="g7j074XMkEkk1sg4dYx8-5" value="AP-NORTHEAST-2" style="points=[[0,0],[0.25,0],[0.5,0],[0.75,0],[1,0],[1,0.25],[1,0.5],[1,0.75],[1,1],[0.75,1],[0.5,1],[0.25,1],[0,1],[0,0.75],[0,0.5],[0,0.25]];outlineConnect=0;gradientColor=none;html=1;whiteSpace=wrap;fontSize=12;fontStyle=0;container=1;pointerEvents=0;collapsible=0;recursiveResize=0;shape=mxgraph.aws4.group;grIcon=mxgraph.aws4.group_region;strokeColor=#00A4A6;fillColor=none;verticalAlign=top;align=left;spacingLeft=30;fontColor=#147EBA;dashed=1;" vertex="1" parent="g7j074XMkEkk1sg4dYx8-2">
          <mxGeometry x="200" y="40" width="800" height="760" as="geometry" />
        </mxCell>
        <mxCell id="g7j074XMkEkk1sg4dYx8-48" style="edgeStyle=orthogonalEdgeStyle;rounded=0;orthogonalLoop=1;jettySize=auto;html=1;" edge="1" parent="g7j074XMkEkk1sg4dYx8-5" source="g7j074XMkEkk1sg4dYx8-6" target="g7j074XMkEkk1sg4dYx8-16">
          <mxGeometry relative="1" as="geometry">
            <Array as="points">
              <mxPoint x="400" y="65" />
              <mxPoint x="400" y="65" />
            </Array>
          </mxGeometry>
        </mxCell>
        <mxCell id="g7j074XMkEkk1sg4dYx8-6" value="&lt;b&gt;CloudFront Distribution&lt;/b&gt;" style="sketch=0;points=[[0,0,0],[0.25,0,0],[0.5,0,0],[0.75,0,0],[1,0,0],[0,1,0],[0.25,1,0],[0.5,1,0],[0.75,1,0],[1,1,0],[0,0.25,0],[0,0.5,0],[0,0.75,0],[1,0.25,0],[1,0.5,0],[1,0.75,0]];outlineConnect=0;fontColor=#232F3E;fillColor=#8C4FFF;strokeColor=#ffffff;dashed=0;verticalLabelPosition=bottom;verticalAlign=top;align=center;html=1;fontSize=12;fontStyle=0;aspect=fixed;shape=mxgraph.aws4.resourceIcon;resIcon=mxgraph.aws4.cloudfront;" vertex="1" parent="g7j074XMkEkk1sg4dYx8-5">
          <mxGeometry x="40" y="26" width="78" height="78" as="geometry" />
        </mxCell>
        <mxCell id="g7j074XMkEkk1sg4dYx8-11" value="VPC" style="points=[[0,0],[0.25,0],[0.5,0],[0.75,0],[1,0],[1,0.25],[1,0.5],[1,0.75],[1,1],[0.75,1],[0.5,1],[0.25,1],[0,1],[0,0.75],[0,0.5],[0,0.25]];outlineConnect=0;gradientColor=none;html=1;whiteSpace=wrap;fontSize=12;fontStyle=0;container=1;pointerEvents=0;collapsible=0;recursiveResize=0;shape=mxgraph.aws4.group;grIcon=mxgraph.aws4.group_vpc2;strokeColor=#8C4FFF;fillColor=none;verticalAlign=top;align=left;spacingLeft=30;fontColor=#AAB7B8;dashed=0;" vertex="1" parent="g7j074XMkEkk1sg4dYx8-5">
          <mxGeometry x="160" y="120" width="600" height="400" as="geometry" />
        </mxCell>
        <mxCell id="g7j074XMkEkk1sg4dYx8-14" value="&lt;b&gt;Application Load Balancer 1&lt;/b&gt;" style="sketch=0;outlineConnect=0;fontColor=#232F3E;gradientColor=none;fillColor=#8C4FFF;strokeColor=none;dashed=0;verticalLabelPosition=bottom;verticalAlign=top;align=center;html=1;fontSize=12;fontStyle=0;aspect=fixed;pointerEvents=1;shape=mxgraph.aws4.application_load_balancer;" vertex="1" parent="g7j074XMkEkk1sg4dYx8-11">
          <mxGeometry x="228" y="40" width="78" height="78" as="geometry" />
        </mxCell>
        <mxCell id="g7j074XMkEkk1sg4dYx8-23" value="&lt;b&gt;Application Load Balancer 2&lt;/b&gt;" style="sketch=0;outlineConnect=0;fontColor=#232F3E;gradientColor=none;fillColor=#8C4FFF;strokeColor=none;dashed=0;verticalLabelPosition=bottom;verticalAlign=top;align=center;html=1;fontSize=12;fontStyle=0;aspect=fixed;pointerEvents=1;shape=mxgraph.aws4.application_load_balancer;" vertex="1" parent="g7j074XMkEkk1sg4dYx8-11">
          <mxGeometry x="398" y="40" width="78" height="78" as="geometry" />
        </mxCell>
        <mxCell id="g7j074XMkEkk1sg4dYx8-24" value="Private Subnets" style="points=[[0,0],[0.25,0],[0.5,0],[0.75,0],[1,0],[1,0.25],[1,0.5],[1,0.75],[1,1],[0.75,1],[0.5,1],[0.25,1],[0,1],[0,0.75],[0,0.5],[0,0.25]];outlineConnect=0;gradientColor=none;html=1;whiteSpace=wrap;fontSize=12;fontStyle=0;container=1;pointerEvents=0;collapsible=0;recursiveResize=0;shape=mxgraph.aws4.group;grIcon=mxgraph.aws4.group_security_group;grStroke=0;strokeColor=#00A4A6;fillColor=#E6F6F7;verticalAlign=top;align=left;spacingLeft=30;fontColor=#147EBA;dashed=0;" vertex="1" parent="g7j074XMkEkk1sg4dYx8-11">
          <mxGeometry x="40" y="160" width="520" height="170" as="geometry" />
        </mxCell>
        <mxCell id="g7j074XMkEkk1sg4dYx8-51" style="edgeStyle=orthogonalEdgeStyle;rounded=0;orthogonalLoop=1;jettySize=auto;html=1;entryX=0;entryY=0.5;entryDx=0;entryDy=0;" edge="1" parent="g7j074XMkEkk1sg4dYx8-24" source="g7j074XMkEkk1sg4dYx8-31" target="g7j074XMkEkk1sg4dYx8-32">
          <mxGeometry relative="1" as="geometry" />
        </mxCell>
        <mxCell id="g7j074XMkEkk1sg4dYx8-53" style="edgeStyle=orthogonalEdgeStyle;rounded=0;orthogonalLoop=1;jettySize=auto;html=1;" edge="1" parent="g7j074XMkEkk1sg4dYx8-24" source="g7j074XMkEkk1sg4dYx8-31" target="g7j074XMkEkk1sg4dYx8-38">
          <mxGeometry relative="1" as="geometry">
            <Array as="points">
              <mxPoint x="140" y="79" />
              <mxPoint x="140" y="170" />
              <mxPoint x="398" y="170" />
            </Array>
          </mxGeometry>
        </mxCell>
        <mxCell id="g7j074XMkEkk1sg4dYx8-31" value="&lt;b&gt;Fargate&lt;/b&gt;" style="sketch=0;points=[[0,0,0],[0.25,0,0],[0.5,0,0],[0.75,0,0],[1,0,0],[0,1,0],[0.25,1,0],[0.5,1,0],[0.75,1,0],[1,1,0],[0,0.25,0],[0,0.5,0],[0,0.75,0],[1,0.25,0],[1,0.5,0],[1,0.75,0]];outlineConnect=0;fontColor=#232F3E;fillColor=#ED7100;strokeColor=#ffffff;dashed=0;verticalLabelPosition=bottom;verticalAlign=top;align=center;html=1;fontSize=12;fontStyle=0;aspect=fixed;shape=mxgraph.aws4.resourceIcon;resIcon=mxgraph.aws4.fargate;" vertex="1" parent="g7j074XMkEkk1sg4dYx8-24">
          <mxGeometry x="40" y="40" width="78" height="78" as="geometry" />
        </mxCell>
        <mxCell id="g7j074XMkEkk1sg4dYx8-32" value="Auto Scaling group" style="points=[[0,0],[0.25,0],[0.5,0],[0.75,0],[1,0],[1,0.25],[1,0.5],[1,0.75],[1,1],[0.75,1],[0.5,1],[0.25,1],[0,1],[0,0.75],[0,0.5],[0,0.25]];outlineConnect=0;gradientColor=none;html=1;whiteSpace=wrap;fontSize=12;fontStyle=0;container=1;pointerEvents=0;collapsible=0;recursiveResize=0;shape=mxgraph.aws4.groupCenter;grIcon=mxgraph.aws4.group_auto_scaling_group;grStroke=1;strokeColor=#D86613;fillColor=none;verticalAlign=top;align=center;fontColor=#D86613;dashed=1;spacingTop=25;" vertex="1" parent="g7j074XMkEkk1sg4dYx8-24">
          <mxGeometry x="160" y="40" width="135" height="120" as="geometry" />
        </mxCell>
        <mxCell id="g7j074XMkEkk1sg4dYx8-35" value="&lt;b&gt;Service1&lt;/b&gt;" style="sketch=0;outlineConnect=0;fontColor=#232F3E;gradientColor=none;fillColor=#ED7100;strokeColor=none;dashed=0;verticalLabelPosition=bottom;verticalAlign=top;align=center;html=1;fontSize=12;fontStyle=0;aspect=fixed;pointerEvents=1;shape=mxgraph.aws4.ecs_service;" vertex="1" parent="g7j074XMkEkk1sg4dYx8-32">
          <mxGeometry x="48" y="50" width="39" height="48" as="geometry" />
        </mxCell>
        <mxCell id="g7j074XMkEkk1sg4dYx8-38" value="Auto Scaling group" style="points=[[0,0],[0.25,0],[0.5,0],[0.75,0],[1,0],[1,0.25],[1,0.5],[1,0.75],[1,1],[0.75,1],[0.5,1],[0.25,1],[0,1],[0,0.75],[0,0.5],[0,0.25]];outlineConnect=0;gradientColor=none;html=1;whiteSpace=wrap;fontSize=12;fontStyle=0;container=1;pointerEvents=0;collapsible=0;recursiveResize=0;shape=mxgraph.aws4.groupCenter;grIcon=mxgraph.aws4.group_auto_scaling_group;grStroke=1;strokeColor=#D86613;fillColor=none;verticalAlign=top;align=center;fontColor=#D86613;dashed=1;spacingTop=25;" vertex="1" parent="g7j074XMkEkk1sg4dYx8-24">
          <mxGeometry x="330" y="40" width="135" height="120" as="geometry" />
        </mxCell>
        <mxCell id="g7j074XMkEkk1sg4dYx8-39" value="&lt;b&gt;Service2&lt;/b&gt;" style="sketch=0;outlineConnect=0;fontColor=#232F3E;gradientColor=none;fillColor=#ED7100;strokeColor=none;dashed=0;verticalLabelPosition=bottom;verticalAlign=top;align=center;html=1;fontSize=12;fontStyle=0;aspect=fixed;pointerEvents=1;shape=mxgraph.aws4.ecs_service;" vertex="1" parent="g7j074XMkEkk1sg4dYx8-38">
          <mxGeometry x="48" y="50" width="39" height="48" as="geometry" />
        </mxCell>
        <mxCell id="g7j074XMkEkk1sg4dYx8-43" style="edgeStyle=orthogonalEdgeStyle;rounded=0;orthogonalLoop=1;jettySize=auto;html=1;" edge="1" parent="g7j074XMkEkk1sg4dYx8-11" target="g7j074XMkEkk1sg4dYx8-38">
          <mxGeometry relative="1" as="geometry">
            <mxPoint x="437" y="140" as="sourcePoint" />
          </mxGeometry>
        </mxCell>
        <mxCell id="g7j074XMkEkk1sg4dYx8-44" style="edgeStyle=orthogonalEdgeStyle;rounded=0;orthogonalLoop=1;jettySize=auto;html=1;" edge="1" parent="g7j074XMkEkk1sg4dYx8-11" target="g7j074XMkEkk1sg4dYx8-32">
          <mxGeometry relative="1" as="geometry">
            <mxPoint x="267" y="140" as="sourcePoint" />
          </mxGeometry>
        </mxCell>
        <mxCell id="g7j074XMkEkk1sg4dYx8-46" style="edgeStyle=orthogonalEdgeStyle;rounded=0;orthogonalLoop=1;jettySize=auto;html=1;" edge="1" parent="g7j074XMkEkk1sg4dYx8-5" source="g7j074XMkEkk1sg4dYx8-16" target="g7j074XMkEkk1sg4dYx8-14">
          <mxGeometry relative="1" as="geometry">
            <Array as="points">
              <mxPoint x="509" y="140" />
              <mxPoint x="427" y="140" />
            </Array>
          </mxGeometry>
        </mxCell>
        <mxCell id="g7j074XMkEkk1sg4dYx8-47" style="edgeStyle=orthogonalEdgeStyle;rounded=0;orthogonalLoop=1;jettySize=auto;html=1;" edge="1" parent="g7j074XMkEkk1sg4dYx8-5" source="g7j074XMkEkk1sg4dYx8-16" target="g7j074XMkEkk1sg4dYx8-23">
          <mxGeometry relative="1" as="geometry">
            <Array as="points">
              <mxPoint x="509" y="140" />
              <mxPoint x="597" y="140" />
            </Array>
          </mxGeometry>
        </mxCell>
        <mxCell id="g7j074XMkEkk1sg4dYx8-16" value="&lt;b&gt;Internet Gateway&lt;/b&gt;" style="sketch=0;outlineConnect=0;fontColor=#232F3E;gradientColor=none;fillColor=#8C4FFF;strokeColor=none;dashed=0;verticalLabelPosition=bottom;verticalAlign=top;align=center;html=1;fontSize=12;fontStyle=0;aspect=fixed;pointerEvents=1;shape=mxgraph.aws4.internet_gateway;" vertex="1" parent="g7j074XMkEkk1sg4dYx8-5">
          <mxGeometry x="470" y="60" width="78" height="78" as="geometry" />
        </mxCell>
        <mxCell id="g7j074XMkEkk1sg4dYx8-49" style="edgeStyle=orthogonalEdgeStyle;rounded=0;orthogonalLoop=1;jettySize=auto;html=1;" edge="1" parent="g7j074XMkEkk1sg4dYx8-5" source="g7j074XMkEkk1sg4dYx8-29" target="g7j074XMkEkk1sg4dYx8-31">
          <mxGeometry relative="1" as="geometry" />
        </mxCell>
        <mxCell id="g7j074XMkEkk1sg4dYx8-29" value="&lt;b&gt;ECR&lt;/b&gt;" style="sketch=0;points=[[0,0,0],[0.25,0,0],[0.5,0,0],[0.75,0,0],[1,0,0],[0,1,0],[0.25,1,0],[0.5,1,0],[0.75,1,0],[1,1,0],[0,0.25,0],[0,0.5,0],[0,0.75,0],[1,0.25,0],[1,0.5,0],[1,0.75,0]];outlineConnect=0;fontColor=#232F3E;fillColor=#ED7100;strokeColor=#ffffff;dashed=0;verticalLabelPosition=bottom;verticalAlign=top;align=center;html=1;fontSize=12;fontStyle=0;aspect=fixed;shape=mxgraph.aws4.resourceIcon;resIcon=mxgraph.aws4.ecr;" vertex="1" parent="g7j074XMkEkk1sg4dYx8-5">
          <mxGeometry x="40" y="320" width="78" height="78" as="geometry" />
        </mxCell>
        <mxCell id="g7j074XMkEkk1sg4dYx8-41" value="&lt;b&gt;CloudWatch Logs&lt;/b&gt;" style="sketch=0;outlineConnect=0;fontColor=#232F3E;gradientColor=none;fillColor=#E7157B;strokeColor=none;dashed=0;verticalLabelPosition=bottom;verticalAlign=top;align=center;html=1;fontSize=12;fontStyle=0;aspect=fixed;pointerEvents=1;shape=mxgraph.aws4.cloudwatch_logs;" vertex="1" parent="g7j074XMkEkk1sg4dYx8-5">
          <mxGeometry x="40" y="440" width="78" height="58" as="geometry" />
        </mxCell>
        <mxCell id="g7j074XMkEkk1sg4dYx8-55" value="CodePipeline" style="fillColor=none;strokeColor=#5A6C86;dashed=1;verticalAlign=top;fontStyle=0;fontColor=#5A6C86;whiteSpace=wrap;html=1;" vertex="1" parent="g7j074XMkEkk1sg4dYx8-5">
          <mxGeometry x="40" y="560" width="520" height="160" as="geometry" />
        </mxCell>
        <mxCell id="g7j074XMkEkk1sg4dYx8-60" style="edgeStyle=orthogonalEdgeStyle;rounded=0;orthogonalLoop=1;jettySize=auto;html=1;" edge="1" parent="g7j074XMkEkk1sg4dYx8-5" source="g7j074XMkEkk1sg4dYx8-57" target="g7j074XMkEkk1sg4dYx8-54">
          <mxGeometry relative="1" as="geometry" />
        </mxCell>
        <mxCell id="g7j074XMkEkk1sg4dYx8-57" value="&lt;b&gt;Code&lt;span style=&quot;background-color: initial;&quot;&gt;Pipeline&lt;/span&gt;&lt;/b&gt;" style="sketch=0;points=[[0,0,0],[0.25,0,0],[0.5,0,0],[0.75,0,0],[1,0,0],[0,1,0],[0.25,1,0],[0.5,1,0],[0.75,1,0],[1,1,0],[0,0.25,0],[0,0.5,0],[0,0.75,0],[1,0.25,0],[1,0.5,0],[1,0.75,0]];outlineConnect=0;fontColor=#232F3E;fillColor=#C925D1;strokeColor=#ffffff;dashed=0;verticalLabelPosition=bottom;verticalAlign=top;align=center;html=1;fontSize=12;fontStyle=0;aspect=fixed;shape=mxgraph.aws4.resourceIcon;resIcon=mxgraph.aws4.codepipeline;" vertex="1" parent="g7j074XMkEkk1sg4dYx8-5">
          <mxGeometry x="82" y="600" width="78" height="78" as="geometry" />
        </mxCell>
        <mxCell id="g7j074XMkEkk1sg4dYx8-61" style="edgeStyle=orthogonalEdgeStyle;rounded=0;orthogonalLoop=1;jettySize=auto;html=1;" edge="1" parent="g7j074XMkEkk1sg4dYx8-5" source="g7j074XMkEkk1sg4dYx8-54" target="g7j074XMkEkk1sg4dYx8-58">
          <mxGeometry relative="1" as="geometry" />
        </mxCell>
        <mxCell id="g7j074XMkEkk1sg4dYx8-54" value="&lt;b&gt;CodeStar&lt;/b&gt;" style="sketch=0;points=[[0,0,0],[0.25,0,0],[0.5,0,0],[0.75,0,0],[1,0,0],[0,1,0],[0.25,1,0],[0.5,1,0],[0.75,1,0],[1,1,0],[0,0.25,0],[0,0.5,0],[0,0.75,0],[1,0.25,0],[1,0.5,0],[1,0.75,0]];outlineConnect=0;fontColor=#232F3E;fillColor=#C925D1;strokeColor=#ffffff;dashed=0;verticalLabelPosition=bottom;verticalAlign=top;align=center;html=1;fontSize=12;fontStyle=0;aspect=fixed;shape=mxgraph.aws4.resourceIcon;resIcon=mxgraph.aws4.codestar;" vertex="1" parent="g7j074XMkEkk1sg4dYx8-5">
          <mxGeometry x="200" y="600" width="78" height="78" as="geometry" />
        </mxCell>
        <mxCell id="g7j074XMkEkk1sg4dYx8-62" style="edgeStyle=orthogonalEdgeStyle;rounded=0;orthogonalLoop=1;jettySize=auto;html=1;" edge="1" parent="g7j074XMkEkk1sg4dYx8-5" source="g7j074XMkEkk1sg4dYx8-58" target="g7j074XMkEkk1sg4dYx8-59">
          <mxGeometry relative="1" as="geometry" />
        </mxCell>
        <mxCell id="g7j074XMkEkk1sg4dYx8-58" value="&lt;b&gt;CodeBuild&lt;/b&gt;" style="sketch=0;points=[[0,0,0],[0.25,0,0],[0.5,0,0],[0.75,0,0],[1,0,0],[0,1,0],[0.25,1,0],[0.5,1,0],[0.75,1,0],[1,1,0],[0,0.25,0],[0,0.5,0],[0,0.75,0],[1,0.25,0],[1,0.5,0],[1,0.75,0]];outlineConnect=0;fontColor=#232F3E;fillColor=#C925D1;strokeColor=#ffffff;dashed=0;verticalLabelPosition=bottom;verticalAlign=top;align=center;html=1;fontSize=12;fontStyle=0;aspect=fixed;shape=mxgraph.aws4.resourceIcon;resIcon=mxgraph.aws4.codebuild;" vertex="1" parent="g7j074XMkEkk1sg4dYx8-5">
          <mxGeometry x="320" y="600" width="78" height="78" as="geometry" />
        </mxCell>
        <mxCell id="g7j074XMkEkk1sg4dYx8-63" style="edgeStyle=orthogonalEdgeStyle;rounded=0;orthogonalLoop=1;jettySize=auto;html=1;" edge="1" parent="g7j074XMkEkk1sg4dYx8-5" source="g7j074XMkEkk1sg4dYx8-59" target="g7j074XMkEkk1sg4dYx8-31">
          <mxGeometry relative="1" as="geometry">
            <Array as="points">
              <mxPoint x="540" y="639" />
              <mxPoint x="540" y="540" />
              <mxPoint x="310" y="540" />
            </Array>
          </mxGeometry>
        </mxCell>
        <mxCell id="g7j074XMkEkk1sg4dYx8-59" value="&lt;b&gt;CodeDeploy&lt;/b&gt;" style="sketch=0;points=[[0,0,0],[0.25,0,0],[0.5,0,0],[0.75,0,0],[1,0,0],[0,1,0],[0.25,1,0],[0.5,1,0],[0.75,1,0],[1,1,0],[0,0.25,0],[0,0.5,0],[0,0.75,0],[1,0.25,0],[1,0.5,0],[1,0.75,0]];outlineConnect=0;fontColor=#232F3E;fillColor=#C925D1;strokeColor=#ffffff;dashed=0;verticalLabelPosition=bottom;verticalAlign=top;align=center;html=1;fontSize=12;fontStyle=0;aspect=fixed;shape=mxgraph.aws4.resourceIcon;resIcon=mxgraph.aws4.codedeploy;" vertex="1" parent="g7j074XMkEkk1sg4dYx8-5">
          <mxGeometry x="440" y="600" width="78" height="78" as="geometry" />
        </mxCell>
        <mxCell id="g7j074XMkEkk1sg4dYx8-64" style="edgeStyle=orthogonalEdgeStyle;rounded=0;orthogonalLoop=1;jettySize=auto;html=1;" edge="1" parent="g7j074XMkEkk1sg4dYx8-5" source="g7j074XMkEkk1sg4dYx8-31" target="g7j074XMkEkk1sg4dYx8-41">
          <mxGeometry relative="1" as="geometry">
            <Array as="points">
              <mxPoint x="140" y="390" />
              <mxPoint x="140" y="469" />
            </Array>
          </mxGeometry>
        </mxCell>
        <mxCell id="g7j074XMkEkk1sg4dYx8-8" style="edgeStyle=orthogonalEdgeStyle;rounded=0;orthogonalLoop=1;jettySize=auto;html=1;" edge="1" parent="g7j074XMkEkk1sg4dYx8-2" source="g7j074XMkEkk1sg4dYx8-4" target="g7j074XMkEkk1sg4dYx8-6">
          <mxGeometry relative="1" as="geometry" />
        </mxCell>
      </root>
    </mxGraphModel>
  </diagram>
</mxfile>
